<svg width="101" height="237" viewBox="0 0 101 237" fill="none" xmlns="http://www.w3.org/2000/svg">
<path d="M92.0905 228.445C80.2825 225.498 87.014 206.981 79.4063 198.501C51.4232 163.067 61.0197 196.444 68.7526 215.489C68.7526 215.489 52.8557 202.838 53.3981 199.586C53.3286 194.553 55.5817 191.12 54.928 185.99C55.3591 176.398 52.0908 168.558 45.5957 161.579C38.0714 159.925 40.4636 176.621 41.4789 186.671C39.8099 184.475 34.7335 176.482 33.2592 175.091C30.2412 170.81 36.7501 166.348 36.6806 162.497C39.6013 154.114 38.7807 143.327 35.2481 135.792C31.2286 128.758 27.1674 146.774 24.9282 157.492C23.9129 154.851 21.5207 147.039 21.3677 145.537C15.5124 132.47 38.3078 127.271 35.2341 111.535C35.1646 94.4916 23.3705 116.636 18.0576 123.615C18.0854 119.305 16.18 98.2172 25.7905 97.0634C31.7153 93.171 37.835 89.7791 39.4344 82.7589C40.3802 80.5486 45.4288 71.5267 41.3815 71.6518C32.4942 73.737 25.5262 83.0787 21.632 87.0544C22.2857 83.9128 26.6667 65.1182 31.3955 65.2016C42.5915 67.7872 69.1004 38.1357 51.5622 45.0864C42.6471 45.6842 36.7362 52.0231 33.6486 54.3308C35.3593 51.2447 44.7334 38.8864 45.999 37.677C47.2924 36.8707 48.7806 36.6483 50.5747 37.6075C62.2158 39.9151 88.3491 20.6479 62.0489 24.1232C59.7124 25.0963 57.8487 25.8331 56.3327 26.3891C58.1825 24.0259 59.6011 21.9407 60.6303 20.3421C70.1296 17.812 82.466 12.8493 85.5258 1.64481C81.9931 -4.88881 54.928 9.55465 58.8918 18.4932C56.9308 20.3838 54.1491 25.0268 51.5622 27.6125C48.113 27.3066 57.6122 18.5627 55.0114 8.09501C39.2118 7.9838 43.0087 34.2017 36.6806 44.0994C35.2758 46.268 33.2591 49.6321 31.1034 53.3994C30.9921 51.5644 31.3677 48.1308 32.2022 42.3756C32.8698 23.1223 24.6918 32.0053 20.0326 43.5016C18.3636 52.2873 24.1216 61.7541 22.2023 70.1505C20.8393 73.028 18.8921 81.9944 18.1967 86.6374C18.1689 85.6643 18.2384 84.3437 18.4331 82.5921C14.0521 43.4877 -2.03954 82.3558 13.0925 97.0078C17.0702 99.5795 14.8588 116.636 14.8866 122.447C12.3553 114.996 3.27331 99.9966 0.185712 110.77C-1.42763 123.101 7.79346 131.566 15.3317 139.462C15.9714 140.408 21.5625 159.55 22.8698 163.345C14.3163 145.607 -11.3719 140.005 9.21206 165.75C14.97 171.825 24.1355 173.382 29.8656 179.276C31.2564 181.625 37.1118 189.34 38.2105 190.772C29.5597 184.864 11.9102 175.648 17.0423 189.924C23.5652 204.715 41.3537 201.045 53.0643 209.038C54.6638 210.693 61.1588 216.531 62.6748 217.685C44.024 212.889 20.5193 215.85 54.4134 231.892C65.8876 238.134 79.1698 229.001 90.491 234.339C103.495 241.331 104.677 230.599 92.0905 228.403V228.445Z" fill="#E3276A"/>
</svg>
