<svg width="240" height="283" viewBox="0 0 240 283" fill="none" xmlns="http://www.w3.org/2000/svg">
<path d="M43.6782 31.2948C45.3054 31.837 46.2094 32.9908 46.2929 34.7006C46.3207 35.354 46.3068 35.8822 47.1134 36.0212C47.8506 36.1603 48.4904 36.1325 48.9076 35.4235C49.2414 34.8535 49.7699 34.3531 49.3944 33.5607C48.0731 30.7109 48.393 28.6675 50.8686 26.4849C53.3721 24.2746 54.3318 21.689 53.5251 18.4639C53.3026 17.5742 53.5251 16.615 54.3596 16.7123C55.347 16.8235 56.71 16.6428 57.2664 17.88C57.5028 18.3944 57.322 19.0756 57.4333 19.6594C58.0035 22.6204 60.4096 23.4684 62.6349 21.4944C63.6085 20.6325 64.888 20.8966 65.9867 20.4518C67.7948 19.715 67.6974 21.4805 68.1703 22.4675C68.4207 22.9957 68.8935 23.4406 69.13 23.9827C69.5889 25.0948 70.3539 24.7195 71.0215 24.3859C71.8003 23.9966 71.8838 23.3433 71.2996 22.7038C70.493 21.828 70.2843 21.0078 71.0771 19.9791C71.6334 19.2563 70.8407 18.9643 70.4234 18.589C68.5736 16.9347 69.1161 13.9043 71.4387 13.1675C72.0646 12.9729 72.913 12.4446 73.205 13.7792C73.5249 15.2249 75.0131 15.1832 76.0701 15.5863C76.8629 15.8922 77.6695 15.5863 77.9755 14.7522C78.2398 14.0155 78.1981 13.237 77.4192 12.6949C75.0131 11.0406 77.6974 9.28903 77.3914 7.52356C77.1689 6.24464 78.5736 6.55047 79.4637 6.48097C81.0909 6.35585 82.6904 5.24375 83.7335 7.94061C84.4428 9.77558 89.3245 9.06661 89.9782 7.16213C91.1048 3.88142 92.7181 2.67201 96.6819 2.5886C100.84 2.49129 105.527 3.6173 109.505 0.767531C110.354 0.155873 111.703 -0.149956 112.968 0.0724652C112.996 1.29578 111.369 1.4765 111.522 2.65811C111.605 3.33927 111.522 4.49308 111.842 4.60429C114.707 5.68859 114.637 8.9693 116.557 10.707C117.043 11.1518 117.697 11.5271 118.337 11.6662C122.078 12.5002 125.666 14.0711 129.588 14.0294C130.729 14.0294 131.73 14.5715 132.746 15.0303C133.705 15.4751 134.734 15.8505 135.722 15.5029C137.864 14.7522 139.769 15.4056 141.675 16.2258C142.217 16.4621 143.149 16.2953 143.01 17.3935C142.899 18.1998 142.37 18.4222 141.744 18.7975C140.353 19.6038 139.046 20.5908 137.766 21.5778C136.904 22.2451 136.529 23.1486 136.723 24.3024C136.96 25.6509 138.059 24.9419 138.712 25.2338C139.477 25.5814 140.186 26.1235 140.979 26.332C142.314 26.6796 141.897 27.319 141.341 27.9446C140.715 28.6397 139.797 29.1262 139.352 29.8908C138.712 30.989 137.53 32.6571 140.492 32.1984C141.981 31.976 141.341 33.1298 141.243 33.7414C141.077 34.8952 139.741 35.8683 140.91 37.3002C141.077 37.4948 139.727 39.01 138.976 39.8302C138.434 40.428 138.142 40.1499 137.46 39.6078C136.125 38.5374 134.331 38.0647 132.537 38.2733C131.035 38.4401 130.812 38.9961 131.438 40.428C131.744 41.1369 131.077 41.4011 130.785 41.4567C126.042 42.3185 122.634 46.0997 117.989 47.1562C117.878 47.184 117.725 47.0589 117.586 47.0033C117.461 45.919 118.406 46.1414 118.949 45.8773C119.408 45.6549 119.978 45.5019 119.908 44.8903C119.881 44.6401 119.463 44.4315 119.227 44.1952C118.671 43.6253 118.309 44.0284 118.045 44.4871C117.572 45.3212 116.849 45.6688 115.945 45.7244C114.693 45.8078 114.192 46.7114 113.886 47.7262C113.469 49.0746 113.928 50.84 111.897 51.3266C111.591 51.3961 111.591 52.0912 111.87 52.2163C114.623 53.4952 114.86 56.3728 115.861 58.6943C116.265 59.6257 117.016 59.3198 117.447 59.5979C120.131 61.3077 118.921 62.9203 117.669 64.8943C117.488 64.2131 117.363 63.7683 117.029 62.5589C116.876 64.088 116.807 64.9082 116.723 65.7561C114.234 64.4355 113.775 64.6023 113.775 67.5216C113.775 75.2924 114.832 82.7436 121.577 87.9704C122.05 88.3319 122.509 88.8323 123.052 88.9852C127.155 90.0973 129.839 93.1278 132.829 95.8386C134.526 97.3816 136.237 99.1054 138.893 99.1749C139.741 99.2027 140.381 100.301 140.785 101.121C143.052 105.82 144.818 110.685 145.958 115.801C147.446 122.487 149.783 128.687 155.597 133.122C157.975 134.943 159.366 137.987 162.592 138.849C163.121 138.988 163.232 139.628 163.246 140.156C163.274 141.004 163.649 141.713 164.387 142.047C169.616 144.424 174.595 147.329 180.868 146.05C183.427 145.522 186.264 145.564 188.962 145.522C190.339 145.494 192.036 145.605 192.509 147.385C192.954 149.094 192.537 150.596 190.826 151.527C190.158 151.889 189.574 152.473 188.865 152.751C185.485 154.029 186.375 157.838 188.907 159.145C195.596 162.565 202.133 166.304 209.379 168.529C212.634 169.529 214.845 171.934 217.237 174.117C220.019 176.647 223.663 177.592 226.834 179.372C228.225 180.15 229.852 180.47 229.935 182.485C229.991 183.639 231.034 183.959 231.813 184.404C234.831 186.114 236.862 188.727 238.531 191.66C238.976 192.453 239.504 193.593 239.254 194.302C238.322 196.901 236.556 199.209 236.556 202.156C236.556 202.503 236.138 202.559 235.749 202.503C231.966 201.961 229.393 199.209 229.17 195.455C228.962 191.883 226.208 189.228 222.62 189.492C219.922 189.7 217.557 188.894 215.221 187.796C214.553 187.49 213.51 187.309 213.482 186.461C213.468 185.558 214.275 184.974 215.304 184.668C209.059 183.097 208.267 183.417 205.068 188.644C203.872 190.604 203.009 192.786 201.271 194.413C200.951 194.705 200.728 195.455 200.881 195.817C201.799 198.027 200.715 199.445 199.31 201.03C197.363 203.226 198.684 206.688 201.619 207.049C205.791 207.563 207.877 211.358 211.382 212.874C211.535 212.943 211.688 213.374 211.618 213.485C210.255 215.571 212.133 217.823 211.257 219.949C210.965 220.645 211.034 221.576 211.646 222.132C212.634 223.036 212.328 223.925 211.785 224.801C211.187 225.76 210.061 225.844 209.254 225.482C207.057 224.481 205.221 225.427 203.413 226.344C199.546 228.276 199.046 229.375 199.713 233.67C200.367 237.827 199.922 238.702 196.361 240.774C193.594 242.386 191.507 244.596 191.007 247.891C190.673 250.074 189.699 251.158 187.404 250.685C187.154 250.63 186.89 250.685 186.64 250.671C180.993 250.63 180.951 250.491 181.146 244.694C181.201 243.067 181.799 242.456 183.176 241.969C185.777 241.066 187.53 235.853 185.916 233.656C185.068 232.502 185.402 232.03 186.417 231.501C187.404 230.987 188.378 230.445 189.574 230.626C191.34 230.89 192.231 229.986 192.773 228.388C193.315 226.803 193.454 225.621 191.813 224.398C189.685 222.799 189.977 220.061 189.769 217.753C189.491 214.667 188.545 211.956 186.834 209.412C185.179 206.966 184.386 204.144 184.192 201.238C184.025 198.778 182.286 197.276 181.09 195.469C180.464 194.524 179.352 194.983 178.462 195.803C176.375 197.721 175.485 197.666 173.886 195.219C172.509 193.12 170.2 192.619 168.295 191.466C166.445 190.34 166.737 189.228 167.933 188.074C168.712 187.323 168.795 186.711 168.364 185.836C167.808 184.682 167.377 183.459 166.765 182.346C165.597 180.22 164.192 178.44 161.382 179.914C159.435 180.942 157.057 179.997 155.068 181.735C155.193 181.179 155.179 180.984 155.277 180.901C157.391 178.88 157.256 176.999 154.873 175.257C154.248 174.798 153.594 174.506 153.079 175.187C152.106 176.438 151.229 174.937 150.298 175.187C148.281 175.757 149.505 174.033 149.129 173.436C147.335 170.669 146.501 167.333 144.317 164.803C143.065 163.357 141.383 162.454 139.769 164.386C139.004 165.317 138.643 164.344 138.351 164.164C135.778 162.565 133.246 161.772 130.506 163.802C130.089 164.108 129.352 164.581 129.116 163.58C128.184 159.743 124.79 159.103 121.8 158.144C120.673 157.783 120.117 157.185 119.519 156.379C117.822 154.141 116.404 151.652 113.483 150.665C112.76 150.415 112.44 149.637 112.287 148.816C111.605 145.077 108.879 143.325 105.569 142.325C104.304 141.949 104.067 140.934 103.706 140.086C102.315 136.834 100.493 134.067 96.9462 132.816C95.2077 132.204 93.5109 131.217 91.8002 132.858C91.1326 133.497 90.6458 132.913 90.3259 132.469C89.9365 131.912 89.9504 131.426 90.8127 131.148C92.8016 130.522 92.0644 128.91 91.3134 128.201C88.8517 125.949 87.8225 122.043 83.803 121.556C83.3719 121.5 83.205 121.167 83.2189 120.611C83.3162 117.455 82.5235 116.524 79.6306 117.121C77.6 117.539 77.6278 116.552 78.1424 115.453C80.2008 111.102 78.7683 107.363 76.0423 104.068C74.5541 102.275 74.0395 100.44 73.97 98.2574C73.8587 95.0879 73.7196 91.9601 71.55 89.2772C69.4777 86.7193 68.2399 86.4691 64.4569 85.8435C62.3845 85.496 60.5626 83.5081 58.6572 82.2014C57.0299 81.0893 55.6113 79.2821 53.845 78.8512C50.3819 77.9893 47.2803 75.7095 43.6782 75.8068C40.8687 75.8902 38.5322 77.7391 37.0162 80.0189C36.0565 81.4507 35.375 82.7992 33.6643 83.6054C31.8841 84.4534 31.9397 86.7749 30.8966 88.3041C30.4376 88.9852 30.0204 89.7776 29.3806 90.1807C26.3069 92.0713 23.0385 93.5171 19.339 93.5866C18.5601 93.6005 17.7117 93.6978 17.3501 92.7942C16.9746 91.8906 17.4058 91.1538 17.9899 90.4727C18.9774 89.305 20.0483 88.2068 20.9662 86.9417C22.0928 85.4126 21.0914 84.2727 20.5073 83.2023C19.8814 82.0346 18.7409 83.0494 18.0455 83.3552C15.7924 84.3283 13.6784 84.2727 11.7869 82.7296C9.90928 81.2005 7.07203 81.3117 5.76467 78.74C3.90099 75.0561 4.81892 70.5104 8.15686 68.314C8.33767 68.2028 8.60192 68.0777 8.64365 67.9109C8.93572 66.6875 6.71042 63.3373 5.43088 63.2122C3.55328 63.0176 2.37109 62.2252 2.23201 60.2373C2.19029 59.5006 1.8704 58.9445 1.34189 58.458C0.660398 57.8463 -0.424434 57.2764 0.173614 56.1781C0.771663 55.0938 2.09293 55.0799 3.12213 55.1773C5.27789 55.3997 8.89399 52.4109 9.97883 50.6037C11.62 47.8791 9.57549 47.1284 8.43503 45.4463C6.79387 43.0275 6.19582 39.9414 3.72018 37.9952C3.44202 37.7867 3.45593 37.0082 3.56719 36.5356C3.80363 35.5347 8.51847 33.519 9.51986 33.8387C12.3571 34.7284 14.8188 33.3522 17.1832 32.2401C18.8244 31.4616 19.9787 31.2809 21.5921 32.3374C22.8438 33.1576 23.9565 33.241 25.8341 32.0038C27.962 30.5997 28.2958 28.2643 30.1595 27.0271C30.8132 26.5962 30.9801 25.6926 30.6463 25.1643C29.3806 23.1347 30.5211 22.2729 32.1762 21.55C33.1914 21.1051 33.6782 20.2155 34.0677 19.2285C34.5127 18.0886 35.4028 17.602 36.5294 18.033C37.5586 18.4361 37.3082 19.3675 37.1274 20.2433C36.4042 23.7881 38.9911 27.3329 42.649 27.8473C44.8325 28.1531 45.0133 28.7092 43.7199 31.267L43.6782 31.2948Z" fill="#E3276A"/>
<path d="M170.325 282.63C167.905 282.047 165.555 281.324 162.954 281.101C160.506 280.879 157.196 280.087 156 276.569C154.706 272.733 151.118 271.009 147.127 271.19C144.818 271.301 142.676 270.189 140.937 268.687C139.88 267.77 138.879 266.992 137.502 266.602C135.833 266.13 134.303 265.268 133.288 263.822C132.231 262.335 131.091 261.195 129.074 261.584C128.907 261.612 128.629 261.626 128.573 261.542C126.751 258.72 123.761 259.957 121.383 259.221C119.463 258.623 116.835 257.122 116.334 254.355C115.875 251.783 117.836 248.072 119.881 246.751C120.854 246.112 122.245 245.709 122.315 243.665C123.052 244.958 123.413 245.806 123.97 246.501C124.679 247.391 125.639 248.141 126.862 247.71C127.947 247.321 129.157 246.96 129.116 245.333C129.088 244.235 129.575 243.498 130.896 244.054C131.494 244.305 132.078 244.221 132.565 243.749C132.954 243.373 133.622 242.956 133.9 243.345C135.04 244.986 137.043 245.5 138.309 246.709C140.84 249.114 142.551 249.921 145.638 248.517C147.015 247.891 148.323 247.877 149.853 248.1C154.317 248.767 158.642 248.503 162.37 245.347C163.719 244.207 165.569 244.068 167.252 244.708C169.296 245.486 171.201 246.07 172.662 243.762C175.652 244.652 177.502 240.398 180.729 241.802C178.225 246.418 174.943 250.352 172.62 254.8C171.466 257.01 171.16 259.721 169.95 262.126C169.074 263.878 169.171 266.241 171.966 267.075C172.731 267.297 173.496 267.645 172.119 268.479C170.937 269.188 172.161 269.855 172.62 270.481C174.637 273.191 174.581 273.136 171.966 275.36C170.297 276.792 169.797 278.78 170.186 280.948C170.284 281.504 170.826 282.005 170.339 282.672L170.325 282.63Z" fill="#E3276A"/>
<path d="M60.6182 169.794C58.8797 169.96 59.1995 171.851 57.7253 171.851C59.7141 172.296 61.091 172.768 61.091 175.34C61.091 177.272 61.8838 179.427 62.9547 181.095C64.3038 183.208 63.5528 184.571 62.2454 186.058C59.2413 189.478 59.3525 189.422 61.2857 193.593C62.1898 195.539 61.0771 197.638 60.938 199.667C60.5903 204.505 59.8949 209.315 59.2969 214.125C59.13 215.418 59.0465 216.78 58.5459 217.948C57.6696 219.977 56.1815 218.99 54.9993 218.254C53.4972 217.322 52.4402 215.362 50.1732 217.183C49.5473 217.684 48.8658 215.765 47.8505 215.626C47.2803 218.434 48.3373 221.632 45.8895 224.036C45.1802 224.732 44.3318 225.482 43.4278 224.926C42.2177 224.189 41.272 223.675 40.1872 225.037C39.8256 225.496 39.2414 225.051 39.2414 224.704C39.2275 221.687 36.6406 220.116 35.375 217.809C34.8882 216.933 34.4431 216.321 35.1942 215.32C36.3207 213.833 34.1789 212.443 35.0273 210.649C36.0147 208.55 36.6684 206.173 36.1677 203.727C36.1399 203.56 36.3207 203.198 36.4459 203.171C38.4208 202.726 38.1149 201.21 37.9201 199.876C37.7393 198.597 37.1969 197.805 35.6809 198.75C35.3332 198.972 34.763 195.275 35.4167 194.858C38.2957 193.037 36.9605 189.784 36.279 188.393C35.2081 186.211 34.8465 183.834 33.7338 181.707C32.8715 180.039 31.4251 180.928 30.4793 180.4C29.923 177.133 31.6337 174.061 31.3277 170.655C31.9536 172.768 33.1775 174.006 35.4445 174.353C36.9605 174.589 38.1427 174.409 39.2275 173.422C40.062 172.657 40.9243 172.115 42.1343 171.976C44.2483 171.726 44.8325 169.516 46.2372 168.32C47.1968 167.5 47.8783 166.332 49.3387 166.235C49.5751 166.221 49.7838 165.971 50.0202 165.887C51.2719 165.387 50.3957 163.607 51.5918 163.177C52.9548 162.69 52.5654 165.22 54.0396 164.72C55.1384 164.344 55.6112 165.081 55.9172 165.901C56.2093 166.721 56.3067 166.999 57.2385 166.277C58.1703 165.554 58.8379 166.694 58.4763 167.319C57.1829 169.613 58.977 169.404 60.6738 169.766L60.6182 169.794Z" fill="#E3276A"/>
<path d="M76.1953 119.276C77.0298 121.056 75.6668 122.154 76.2231 123.572C75.1244 122.223 73.8309 122.293 72.5236 122.918C71.703 123.321 71.0354 123.127 70.4095 122.626C70.0479 122.334 70.0201 121.876 70.2148 121.459C70.7294 120.388 71.5917 121.334 72.1619 121.125C73.511 120.652 75.3886 121.681 76.1814 119.262L76.1953 119.276Z" fill="#E3276A"/>
<path d="M142.147 38.2872C145.054 38.4123 145.485 40.8033 146.779 42.2212C146.904 42.3603 146.779 42.9302 146.598 43.1109C146.056 43.667 145.221 43.5558 144.665 43.3472C143.58 42.958 145.013 42.8746 144.86 42.4576C144.331 40.9701 143.58 39.6078 142.147 38.2872Z" fill="#E3276A"/>
<path d="M35.236 222.966C34.5406 222.758 34.5545 222.076 34.3042 221.576C33.9565 220.881 33.72 220.144 34.2902 219.477C34.4015 219.352 34.9161 219.505 35.1943 219.63C35.987 220.005 36.1817 220.658 36.0288 221.506C35.9314 222.118 35.7645 222.632 35.2221 222.966H35.236Z" fill="#E3276A"/>
</svg>
