<svg width="180" height="190" viewBox="0 0 180 190" fill="none" xmlns="http://www.w3.org/2000/svg">
<path d="M136.653 63.8649L134.665 68.1882C141.438 71.5384 147.613 76.5707 152.55 83.3685C156.695 89.068 159.379 95.3931 161.632 101.982C165.707 113.854 165.93 126.629 170.436 138.473C166.556 136.861 162.87 135.179 159.324 133.163C158.642 132.774 158.726 132.162 158.726 131.55C158.726 129.215 158.753 126.88 158.739 124.544C158.642 116.259 153.552 109.809 145.499 107.724C141.354 106.653 137.21 106.959 133.093 107.807C129.421 108.572 125.861 109.725 122.328 111.004C121.633 111.254 121.035 111.338 121.73 112.297C125.026 116.857 128.587 121.124 133.343 124.266C138.656 127.769 144.442 129.118 150.715 127.894C151.869 127.672 152.217 127.95 152.481 128.979C157.641 148.677 163.329 168.236 168.823 187.851C169.254 189.422 168.545 189.296 167.529 189.269C154.845 188.949 142.55 186.405 130.464 182.679C120.019 179.468 110.158 175.02 101.382 168.361C98.2531 165.984 95.402 163.315 92.6204 160.284C89.6997 168.18 83.9417 172.309 76.1392 173.922C73.3854 174.478 70.6456 174.311 67.9057 173.769C61.8278 172.587 56.0977 170.474 50.7013 167.444C49.3801 166.707 49.0324 166.081 50.4093 164.983C52.7598 163.092 54.9294 160.993 57.2938 159.145C64.373 153.598 67.1547 146.258 66.7652 137.458C66.501 131.676 66.0559 125.92 65.4439 120.179L58.7681 119.929L40.0477 119.234L35.9449 119.081C35.931 119.512 35.7501 119.929 35.2216 120.304C26.5152 126.324 23.7614 134.484 25.6529 144.854C27.7669 156.503 24.1786 166.679 16.0702 175.27C15.9033 175.437 15.7086 175.562 15.2496 175.951C15.945 172.712 16.2649 169.765 15.8616 166.79C15.347 162.884 13.9283 159.325 11.6335 156.114C9.67245 153.362 8.08692 150.387 6.71002 147.287C6.19542 146.119 5.68085 145.021 7.3081 143.533C5.52786 144.117 5.15232 143.464 4.80461 142.435C3.45553 138.473 2.52369 134.414 1.67529 130.327C1.32759 128.603 2.39853 127.422 2.95486 125.795C0.715652 126.838 0.673912 125.434 0.548739 123.932C0.270577 120.624 0.131518 117.315 0.00634549 114.007C-0.0492869 112.575 0.242775 111.546 1.60577 110.865C2.57934 110.379 3.41383 109.656 4.48476 108.919C3.39992 108.266 2.38463 108.335 1.4806 108.252C0.31232 108.141 0.075852 107.668 0.145393 106.611C0.576544 99.2299 1.70312 91.9734 3.46945 84.8003C3.77543 83.5353 4.49865 83.6743 5.38877 83.8272C8.78235 84.3694 12.1759 84.9254 15.5695 85.4676C16.0841 85.5371 16.5987 85.5788 17.1828 85.2868C13.6362 84.1608 10.1314 82.9097 6.54313 81.9922C4.65163 81.5057 4.49863 80.8106 5.05495 79.0869C7.98956 70.051 11.856 61.4739 16.8212 53.3694C17.4749 52.299 17.9339 52.0905 19.0604 52.7995C22.7182 55.121 26.4595 57.3174 30.3955 59.208C29.561 58.5963 28.7265 57.9569 27.8781 57.3452C25.1243 55.3851 22.3984 53.3833 19.6307 51.465C18.8101 50.895 18.6432 50.4919 19.2552 49.5883C23.8448 42.874 29.0743 36.7018 34.9435 31.0578C35.6806 30.3489 36.1396 30.2655 36.8489 31.0439C38.7126 33.143 40.6319 35.1865 42.5373 37.2439C42.7459 37.0632 42.9406 36.8825 43.1493 36.6879C41.522 34.5193 39.9782 32.295 38.2536 30.1959C37.3635 29.1116 37.5443 28.5834 38.5596 27.7354C41.675 25.1498 44.8739 22.6614 48.1423 20.2565C49.2827 19.4085 49.7834 19.6171 50.604 20.6458C55.3466 26.5816 60.1728 32.4619 65.138 38.5923C65.277 37.7166 64.8042 37.3829 64.5399 37.0076C60.5622 31.169 56.5845 25.3305 52.5372 19.5476C51.7445 18.4215 51.6471 17.8655 52.9823 17.0592C61.0212 12.1104 69.519 8.19018 78.4897 5.25701C79.6858 4.86777 80.0336 5.1597 80.3673 6.29961C82.3562 13.0695 84.4285 19.8117 86.5008 26.5538C86.7233 27.2906 86.7511 28.1247 87.6413 28.9448C86.5564 24.3157 85.5551 19.9785 84.5398 15.6413C83.7748 12.4162 83.0377 9.19107 82.1893 5.97987C81.8694 4.72875 82.0363 4.1588 83.4271 3.81127C93.594 1.17002 103.914 -0.164508 114.414 0.0162095C115.569 0.0301108 116.014 0.322036 116.055 1.54535C116.195 4.65924 116.487 7.77314 116.709 10.887C116.834 10.9009 116.96 10.9009 117.085 10.9148C117.474 7.95386 117.919 5.00678 118.197 2.0458C118.336 0.641767 118.74 0.0718215 120.325 0.196933C130.979 1.04491 141.327 3.21351 151.396 6.81395C152.773 7.3144 153.204 7.82875 152.676 9.31619C151.925 11.4153 151.466 13.6256 151.285 15.9471C152.453 13.8202 153.635 11.7072 154.79 9.58032C155.165 8.87135 155.443 8.4126 156.459 8.84354C164.414 12.2077 171.869 16.4337 178.851 21.5076C178.934 21.5632 178.962 21.7162 179.087 21.9803C177.919 22.1749 176.806 22.3417 175.693 22.5502C163.482 24.9135 154.122 31.3776 147.752 42.0538C147.224 42.9434 146.834 43.3327 146.153 43.2493L144.428 46.9748L136.653 63.8649Z" fill="#E3276A"/>
</svg>
