<svg width="291" height="150" viewBox="0 0 291 150" fill="none" xmlns="http://www.w3.org/2000/svg">
<path d="M174.502 148.494C129.676 146.256 81.5402 155.903 41.3457 137.109C26.0607 129.24 20.9704 128.504 15.2263 112.253C13.8077 109.793 13.4739 106.095 11.7493 104.051C12.0553 102.842 10.9844 102.022 10.887 100.924C10.8314 100.367 11.1791 99.5751 10.2194 99.3665C10.2889 97.4065 8.96768 95.919 6.89537 96.3222C2.18052 94.1397 10.2055 95.085 6.70065 91.4706C-3.89732 89.9415 -0.962695 75.359 8.80079 80.0715C13.7243 81.5729 13.5574 88.5235 15.727 92.0267C17.7993 96.5585 20.428 101.924 25.3375 104.343C27.4237 105.58 29.4265 107.832 31.9995 108.319C32.681 108.138 32.6671 109.709 33.3625 108.792C34.5169 107.707 33.6546 105.692 35.4209 105.149C37.827 105.58 40.9007 107.36 44.0161 106.651C46.7977 106.401 47.1871 113.171 50.3026 110.084C50.1496 106.178 54.1829 103.62 53.571 99.5334C53.2928 96.9616 49.9131 95.6549 50.2747 92.819C51.3596 89.7747 53.0564 86.2993 53.5153 82.8518C53.2372 81.8509 54.2942 81.9204 54.322 81.0724C54.1273 80.1827 55.1843 80.3635 55.0869 79.5989C55.3373 78.7092 54.5862 77.2357 55.5737 76.7769C55.7962 76.7352 55.8102 76.4989 55.6015 76.3321C54.6141 75.5953 55.1565 74.9559 55.7824 74.2886C57.7434 64.8218 56.9506 54.7016 61.6377 46.3191C62.7086 39.8689 68.5361 37.6725 72.7641 33.7385C75.2815 31.4031 71.3316 27.747 70.97 24.8694C67.8129 24.4663 66.575 21.7416 70.8031 22.3255C72.7781 21.2551 72.3191 15.4861 76.7141 17.9466C81.6236 18.5304 82.3329 17.3627 83.3065 22.9372C84.1827 23.5766 88.2717 24.3551 85.7682 25.5923C84.1549 25.2309 81.6653 31.7089 84.4191 31.0972C87.924 32.0147 91.3315 34.934 95.2675 36.0183C101.526 39.3824 109.648 29.0954 113.835 24.786C118.216 22.7286 119.899 16.8901 122.708 13.0533C125.671 8.57711 127.632 3.78116 130.997 0C133.626 0.806276 131.289 3.61434 130.066 4.79595C129.704 6.49191 128.563 7.92374 127.451 9.21656C125.031 12.5668 123.863 16.487 121.067 19.4062C120.427 21.0466 119.398 22.8259 118.383 24.1744C116.881 25.7452 118.73 28.3587 116.616 29.3457C116.116 30.6385 114.753 30.8748 113.876 31.5421C113.153 33.0434 112.263 34.3918 111.429 35.5456C109.287 39.5909 106.408 42.4963 104.836 46.7362C101.707 51.5877 98.2299 56.2447 95.5178 61.4577C94.5303 65.3639 89.9128 67.5465 90.5387 71.9115C89.9963 73.0236 88.8141 74.4971 90.038 75.9985C94.0853 81.2949 97.5901 86.5356 101.123 92.263C104.878 96.9755 102.069 94.3899 100.205 97.8513C100.205 99.1441 102.736 100.423 101.401 101.98C98.9948 104.621 93.1673 104.83 93.6402 109.25C93.7654 112.489 90.0102 110.696 88.7167 112.879C87.9796 113.184 87.771 114.88 88.7585 114.38C90.3996 113.157 92.3885 114.463 93.6124 114.449C96.1298 113.462 99.8849 114.241 103.223 113.921C131.234 120.691 165.642 112.837 195.837 114.658C215.879 112.865 237.895 116.562 256.448 109.876C262.137 106.262 269.355 102.3 270.676 95.0711C272.651 84.2836 271.01 90.8172 265.878 88.5235C263.681 83.5051 270.551 87.4114 271.358 84.8953C270.955 80.5442 272.179 76.763 272.109 72.4814C273.5 66.8097 279.146 62.9868 284.459 61.1101C285.92 60.9155 289.119 60.0815 289.786 61.555C288.979 68.4778 291.358 77.472 288.799 83.4357C287.241 83.6859 287.589 81.7814 286.448 81.4339C284.223 78.9733 282.012 81.0307 281.316 83.394C279.355 88.0648 288.757 83.5747 287.366 87.3558C286.601 88.8016 284.696 90.0666 286.365 91.7903C287.436 93.8755 282.902 92.7634 281.789 93.0276C277.519 94.932 282.846 95.9746 284.932 95.5159C288.507 96.6002 283.277 98.1849 285.475 100.937C286.212 103.606 279.16 99.7836 280.009 103.745C280.871 105.567 287.185 102.467 285.516 105.845C284.751 106.289 284.918 107.276 284.292 107.805C284.459 108.319 285.934 110.043 284.181 109.918C274.696 110.112 282.22 119.093 272.318 129.268C248.41 155.722 207.923 146.617 174.53 148.48L174.502 148.494ZM96.5192 41.6205C95.2674 43.8586 89.4956 41.1896 87.9518 40.3694C85.4762 39.0071 85.4344 45.3461 84.6695 46.9864C82.4998 52.0882 84.8781 58.7747 85.8795 63.8904C87.1034 64.9191 85.3788 67.1155 87.4789 67.2684C88.2578 67.1711 88.063 68.6447 88.8697 67.7133C90.3162 65.3083 92.2633 63.4734 93.1534 61.0407C97.5345 53.5896 102.764 46.4582 106.519 38.7707C105.74 37.5335 104.002 41.2452 102.778 41.6483C101.012 42.816 97.145 44.79 96.5192 41.6483V41.6205Z" fill="#E3276A"/>
</svg>
