<svg width="113" height="155" viewBox="0 0 113 155" fill="none" xmlns="http://www.w3.org/2000/svg">
<path d="M98.9315 3.00244C91.6436 -1.44598 85.4545 13.067 82.506 17.154C79.5436 21.2549 77.1514 22.6867 74.0638 16.9594C70.9901 11.2459 76.3725 10.0921 77.0679 5.92172C77.7633 1.76523 67.527 -1.90472 70.5728 1.09796C73.6048 4.08674 72.2974 5.18496 70.7397 10.6204C69.1681 16.0558 64.5785 15.1661 62.4505 26.593C62.3532 27.0934 62.2975 27.5661 62.228 28.0387C60.0444 24.0351 57.374 20.3513 54.3143 18.2522C53.146 14.471 50.8233 11.1069 47.3463 9.0217C42.6314 6.07463 36.1086 8.06251 32.5203 11.4544C28.8068 14.4293 24.9265 18.5858 24.537 23.7015C24.2033 26.7459 25.6497 29.6651 22.3674 31.1109C21.1017 31.7781 19.6692 32.1674 18.2784 31.9867C15.4551 31.7086 12.8682 28.3445 14.3841 25.5643C13.3967 26.8154 13.4801 28.6921 14.2311 30.1378C16.2478 34.2804 22.2144 34.0302 25.2881 31.2082C27.2352 29.401 26.498 26.0647 26.9153 24.0212C28.0279 18.5024 33.2435 14.3181 38.153 11.9549C41.8665 10.3145 45.8999 11.5795 48.2364 14.9715C48.598 15.4719 48.904 16.0002 49.21 16.5423C47.1933 16.5423 45.0654 17.293 42.8401 19.1419C38.4173 23.6876 33.2852 30.7912 35.3158 37.5194C38.2087 44.3866 46.6649 40.6889 50.1975 36.5741C54.0083 32.8764 55.5938 27.3714 55.0792 22.1167C57.5687 24.2297 59.9053 27.3714 61.9359 30.6104C61.5186 36.1849 62.3949 40.9113 63.2155 43.8723C58.2364 38.0894 49.5299 37.3109 43.6328 42.2041C42.242 43.358 41.1433 44.7342 40.3227 46.2077C40.0167 45.749 39.683 45.2763 39.3074 44.8315C34.1754 38.6315 25.0099 37.7696 18.8069 42.9131C15.4829 45.6656 13.7165 49.5579 13.5635 53.5615C10.4898 53.2279 7.291 54.1037 4.718 56.2306C-0.344547 60.4288 -1.03996 67.9355 3.14638 72.9816C4.59282 74.7332 6.42865 75.9287 8.4036 76.6238C6.6929 80.9193 7.31875 86.0072 10.4759 89.8161C10.6011 89.969 10.7402 90.0941 10.8654 90.2471C8.68179 90.6085 6.56779 91.526 4.73192 93.0551C-0.831317 97.6564 -1.59633 105.9 3.00725 111.46C6.37301 115.534 11.686 117.021 16.4704 115.728C16.5538 116.034 16.6789 116.326 16.7763 116.632C15.1212 117.035 13.5218 117.799 12.1171 118.953C7.19365 123.026 6.4982 130.338 10.5872 135.259C12.4926 137.567 15.1074 138.916 17.8473 139.333C15.6498 142.864 15.8306 147.576 18.64 150.968C22.1588 155.222 28.4591 155.806 32.715 152.275C36.957 148.758 37.555 142.474 34.0362 138.22C32.6176 136.511 30.7401 135.398 28.7234 134.912C30.1003 133.119 30.8931 131.006 31.0739 128.851C35.3298 131.673 41.1154 131.534 45.2461 128.114C47.9304 125.904 49.363 122.748 49.5299 119.537C53.2294 120.663 57.4158 119.982 60.6147 117.327C64.203 114.352 65.5798 109.723 64.6063 105.483C67.5548 105.274 70.4616 104.204 72.9094 102.188C78.3614 97.6704 79.6827 90.0524 76.4421 84.061C78.1806 83.5049 79.8634 82.6291 81.3516 81.378C87.5407 76.2484 88.4169 67.0875 83.2709 60.8875C79.0011 55.7301 71.908 54.2844 66.0945 56.9117C66.8038 54.4373 66.8176 51.7821 66.1083 49.266L70.1556 47.8898C70.1556 47.8898 75.9413 52.1992 80.3641 56.5503C84.7869 60.8875 87.499 56.1471 92.8119 57.5512C98.1109 58.9552 97.1512 66.1144 97.1512 66.1144C97.1512 66.1144 100.183 62.7781 99.5851 57.7458C99.0149 52.7135 92.4781 48.1678 92.4781 48.1678C92.4781 48.1678 98.8619 44.5395 105.51 41.231C111.88 38.0893 112.158 29.0813 112.158 28.3445C112.116 28.7199 111.546 30.819 104.926 34.5445C97.5963 38.6871 94.2722 32.3342 94.2722 32.3342C94.2722 32.3342 96.0386 32.8068 101.032 27.8302C105.329 23.5486 104.064 18.7387 103.646 17.5154C104.05 19.5728 97.5824 22.3809 96.72 22.2975C95.8577 22.2141 93.7299 20.3652 95.5518 12.2329C97.3738 4.10064 106.553 10.8428 106.553 10.8428C106.553 10.8428 106.261 7.49256 98.9732 3.03024L98.9315 3.00244ZM47.2212 33.7104C45.5661 35.4342 43.1182 37.3804 40.8234 37.3109C37.0265 36.7687 39.0849 31.0414 40.2114 28.6643C42.1168 25.3001 44.3004 20.7266 48.2364 19.545C48.9875 19.4338 49.7246 19.4616 50.4617 19.6145C51.8386 24.5078 50.8651 30.0822 47.2212 33.7104Z" fill="#E3276A"/>
</svg>
