<svg width="187" height="229" viewBox="0 0 187 229" fill="none" xmlns="http://www.w3.org/2000/svg">
<path d="M0.0610016 4.25304C-1.00992 -5.06084 12.3141 3.62748 16.9037 4.97591C22.2444 6.42164 28.3362 7.89518 33.6074 10.2723C48.4473 14.6234 62.0077 23.8956 74.3442 34.6969C94.0937 52.0874 119.865 35.5032 143.634 39.326C154.232 39.0341 163.439 43.1628 173.356 43.844C178.822 45.1785 191.311 44.3583 184.302 52.2682C173.912 67.1148 172.869 86.1318 165.804 102.243C155.428 135.898 145.15 169.526 134.01 202.361C131.173 206.656 126.597 235.599 120.7 226.591C124.483 210.757 131.381 196.049 136.402 180.675C144.441 152.747 153.467 125.472 162.132 97.8923C161.826 94.0416 176.555 59.4412 169.545 67.6847C151.173 84.7972 126.653 101.91 101.159 94.1528C90.867 92.0815 83.913 77.4712 72.397 80.6963C27.7938 92.7349 6.02759 38.7422 0.0749233 4.23914L0.0610016 4.25304ZM117.974 58.0094C85.7488 54.548 102.772 80.0013 123.259 74.6493C148.836 63.7367 144.191 57.0502 117.974 58.0094ZM58.7671 60.4838C90.2551 55.8825 44.1914 34.3772 33.6908 33.5014C34.2889 46.3323 44.7199 61.0816 58.7671 60.4838Z" fill="#E3276A"/>
</svg>
