<svg width="150" height="131" viewBox="0 0 150 131" fill="none" xmlns="http://www.w3.org/2000/svg">
<path d="M120.124 71.8236C123.782 68.7653 127.579 72.185 131.432 71.5595C134.116 68.7792 137.982 68.0007 141.835 67.2084C144.185 65.6097 152.043 65.29 149.011 60.786C144.909 63.2604 139.192 65.3734 134.102 66.8469C113.365 63.038 132.961 23.6278 117.037 9.80986C114.561 5.02781 108.928 2.38656 104.672 0.885218C96.3553 -4.20266 104.255 14.1054 104.144 18.6094C111.237 29.23 114.617 40.6152 117.329 53.1124C120.987 66.2909 132.016 64.0945 114.213 71.5178C99.9158 79.2191 96.1745 61.9259 92.5723 52.89C87.6767 45.1053 77.1204 20.361 68.9146 24.6565C71.3764 44.2295 86.4945 59.5487 99.429 72.8523C86.8283 83.9177 64.0191 21.3896 39.6103 16.1767C19.833 4.9722 47.7743 49.2618 54.4919 53.3766C63.2679 65.151 89.8186 69.1962 87.7462 74.298C48.2472 60.5079 43.5602 56.4348 0 71.5734C7.59382 78.3572 28.6646 74.2702 39.7215 79.4276C33.6993 82.5693 26.5645 84.6128 21.0013 88.3244C8.48399 97.0684 46.4113 91.0352 54.6032 92.7868C72.4195 83.9455 90.4583 76.689 110.222 75.0626C98.6919 98.528 104.686 82.75 87.8853 95.2473C78.3582 103.241 78.5947 125.636 92.2385 129.333C109.498 135.172 124.352 106.007 110.305 94.1074C98.8588 90.1733 116.216 65.5958 120.416 80.3868C105.799 102.907 148.9 128.68 148.399 96.1648C148.107 83.2088 132.92 73.464 122.53 79.9976C122.016 78.1765 116.675 73.172 120.124 71.8236ZM80.8756 79.8168C73.254 78.6213 68.8452 74.7568 80.4584 76.0635C90.7643 75.8828 88.5946 76.6056 80.8756 79.8168Z" fill="#A6BB4E"/>
</svg>
