<svg width="254" height="251" viewBox="0 0 254 251" fill="none" xmlns="http://www.w3.org/2000/svg">
<path d="M95.3817 227.966C66.2164 220.598 37.8022 196.438 28.0665 166.661C26.0777 161.031 57.9689 154.289 62.4752 151.564C77.3151 147.13 91.1815 139.748 106.466 136.148C109.345 136.092 124.561 126.166 123.295 131.935C120.11 141.416 118.233 151.467 115.284 161.712C111.752 176.072 109.373 190.543 104.478 204.389C102.92 209.421 101.779 227.493 95.3956 227.952L95.3817 227.966ZM49.8327 171.429C49.6936 185.372 73.2679 182.647 69.1789 168.691C65.5489 158.362 49.8327 159.933 49.8327 171.429ZM88.831 176.656C87.8714 182.258 98.664 185.08 99.9018 179.019C103.434 169.705 88.678 166.439 88.831 176.656ZM97.5236 158.501C104.505 159.154 105.841 148.631 99.2899 147.352C90.7364 145.183 89.1092 158.028 97.5236 158.501ZM86.0216 200.858C86.3554 197.814 81.3902 192.795 79.2623 194.116C79.2901 198.801 79.151 197.605 76.4528 200.094C76.9396 204.737 81.0703 201.22 82.169 204.181C84.0327 205.348 86.0911 203.652 86.0216 200.858Z" fill="#E3276A"/>
<path d="M200.277 201.178C185.075 226.534 138.539 238.725 111.849 230.496C113.587 209.338 118.859 186.248 123.24 164.52C124.672 159.502 127.287 129.35 130.68 131.894C153.184 155.387 181.236 176.03 200.277 201.164V201.178ZM139.053 189.654C138.427 202.346 159.262 202.874 158.677 189.556C159.484 176.642 138.33 177.323 139.053 189.654ZM179.317 203.819C180.249 195.006 165.367 196.41 167.954 205.307C168.58 212.035 180.054 210.659 179.317 203.819ZM130.124 209.908C123.768 209.421 123.142 221.627 129.387 222.127C137.495 221.529 138.177 210.422 130.124 209.908ZM137.76 165.632C141.334 166.564 139.164 163.283 141.39 162.574C149.526 162.602 140.082 154.456 136.661 156.249C134.978 156.735 129.123 160.558 133.351 161.212C136.717 161.114 133.087 166.786 137.76 165.632Z" fill="#E3276A"/>
<path d="M123.017 16.7214C129.109 19.0568 144.589 15.2062 141.807 25.0066C138.497 41.6326 136.258 57.8276 132.308 74.1199C121.807 131.31 134.769 128.53 91.5988 87.9378C84.2692 78.2625 52.4057 55.8675 53.5184 47.1375C70.8896 26.4245 97.4957 19.1402 123.017 16.7075V16.7214ZM118.427 45.8169C131.112 47.6101 132.252 28.3012 120.43 26.4523C108.038 24.3671 105.02 46.7622 118.427 45.8169ZM85.9937 46.637C86.87 36.8227 69.763 40.3675 74.5056 48.8334C77.5237 54.9083 85.8825 53.1707 85.9937 46.637ZM105.604 84.7961C105.326 91.7468 117.788 92.9006 116.912 84.5598C117.982 76.2468 104.853 78.2903 105.604 84.7961ZM102.183 66.7661C108.831 66.3491 110.124 63.7913 104.575 60.6218C104.672 59.6765 106.48 58.898 104.255 57.911C98.9839 53.8935 101.126 61.9841 97.301 61.2473C92.8922 62.554 99.6654 67.7809 102.197 66.7661H102.183Z" fill="#E3276A"/>
<path d="M130.569 117.951C136.842 93.2203 143.587 67.489 149.526 42.7169C152.071 36.1693 150.722 25.2846 157.732 22.4766C172.446 24.9649 185.896 32.9581 197.578 42.7725C210.304 53.5599 220.054 68.3092 226.076 83.8925C227.55 87.9656 218.149 87.7293 215.909 89.2724C209.539 92.2194 204.199 93.2203 198.246 96.1118C182.502 102.062 166.744 106.969 150.569 112.946C146.716 113.113 128.511 124.707 130.569 117.937V117.951ZM165.659 62.5123C152.864 61.6783 152.878 79.9724 164.602 82.002C177.217 82.2105 179.053 62.0258 165.659 62.5123ZM174.282 41.6882C166.063 41.2572 166.8 53.5182 174.519 54.102C182.28 53.3792 182.613 41.1321 174.282 41.6882ZM149.317 92.9979C140.722 92.4557 141.96 106.621 150.75 104.286C157.787 103.577 156.41 92.7755 149.317 92.9979ZM202.836 74.5648C204.171 72.132 199.873 67.0998 198.83 70.728C198.093 74.2311 194.616 70.3666 193.754 75.1208C192.405 76.9975 196.827 76.08 197.036 78.2625C194.046 83.7257 204.866 79.3468 202.836 74.5648ZM170.958 91.4966C170.054 94.819 174.394 91.6217 175.186 94.2907C177.745 96.0145 177.579 91.7468 179.22 90.732C180.541 86.1029 169.999 87.8822 170.958 91.5105V91.4966Z" fill="#E3276A"/>
<path d="M234.977 126.264C234.95 149.201 227.411 174.571 210.944 190.502C197.273 183.19 186.883 170.025 174.116 161.17C130.402 117.756 114.032 131.407 166.396 115.796C183.058 111.014 199.261 106.76 215.562 101.714C219.943 101.575 223.948 98.5167 228.719 98.7669C235.993 104.731 234.296 117.325 234.991 126.264H234.977ZM202.738 168.218C215.673 168.788 213.726 146.337 200.902 148.826C189.929 149.215 190.513 170.164 202.738 168.218ZM218.816 129.392C227.717 130.128 227.147 115.907 219.428 115.532C210.04 114.628 208.677 129.989 218.816 129.392ZM167.899 125.068C159.818 124.512 159.623 135.939 166.577 137.51C174.992 139.039 176.118 124.762 167.899 125.068ZM189.108 137.593C193.281 139.373 199.706 130.74 193.907 130.851C190.791 131.143 191.389 126.403 187.648 129.266C184.366 129.211 187.62 132.575 187.022 133.353C183.74 136.161 184.408 137.774 189.122 137.607L189.108 137.593Z" fill="#E3276A"/>
<path d="M18.0944 123.887C19.4156 103.382 25.8412 70.3388 44.7284 59.8294C54.3389 68.3648 64.6726 76.9419 74.7143 84.8657C86.5779 95.8477 101.293 107.149 113.546 118.131C123.74 126.486 121.279 122.705 111.626 127.668C98.0103 130.156 86.7169 135.508 72.7949 137.955C57.7742 141.708 45.2013 147.171 30.7508 150.244C17.2321 156.791 19.4156 132.839 18.0944 123.887ZM37.2876 88.48C37.079 101.631 54.172 103.632 56.6616 90.7181C58.1637 78.624 37.6631 75.0096 37.2876 88.48ZM26.3419 125.736C24.2835 137.983 43.2819 140.207 44.5198 128.279C47.5378 115.24 25.4935 111.487 26.3419 125.736ZM87.2594 109.86C79.5682 109.666 79.1788 122.427 87.3289 122.288C96.0632 122.649 95.1592 109.554 87.2594 109.86ZM61.8771 120.926C69.3736 122.594 69.457 105.162 63.852 112.279C62.7672 113.78 62.6003 110.986 61.4737 111.278C59.5961 110.945 56.5781 116.575 60.236 116.769C62.5725 117.603 56.7033 121.579 61.8771 120.912V120.926Z" fill="#E3276A"/>
<path d="M151.918 248.859C138.803 249.652 94.0465 256.394 111.473 234.958C143.295 240.713 175.757 232.428 200.944 209.866C208.371 199.871 210.68 207.642 215.214 214.023C197.759 232.317 175.701 243.646 151.918 248.859Z" fill="#E3276A"/>
<path d="M239.484 125.249C239.386 115.504 238.51 106.774 236.271 98.058C235.019 92.706 244.365 94.0127 247.077 92.0109C256.201 112.779 253.976 139.637 247.439 161.365C244.407 173.028 238.427 185.122 229.845 194.95C224.713 203.555 221.264 205.293 215.367 196.424C211.375 191.517 227.314 180.91 227.995 173.917C235.548 159.613 239.275 141.889 239.484 125.249Z" fill="#E3276A"/>
<path d="M242.043 80.306C241.848 84.2262 233.809 82.1688 231.361 84.6571C228.065 81.9185 228.886 76.7473 226.201 73.2024C218.649 57.9388 206.688 43.6204 192.585 33.2779C185.673 29.3577 179.665 24.3671 171.835 22.268C168.149 18.8066 153.977 19.4322 156.118 12.6483C157.871 10.0488 157.634 0.345664 162.892 5.30843C173.114 6.97659 180.93 10.716 189.4 15.5537C213.948 29.8859 235.895 52.6702 242.029 80.2921L242.043 80.306Z" fill="#E3276A"/>
<path d="M19.5965 166.744C28.1361 166.494 28.2891 184.316 34.7703 189.654C48.2611 210.186 69.4988 224.463 91.9604 232.206C96.8282 232.595 99.0952 236.168 96.1189 240.755C98.97 256.908 53.2959 228.299 47.5518 223.656C38.4281 217.053 -4.58971 167.898 19.5826 166.758L19.5965 166.744Z" fill="#E3276A"/>
<path d="M122.057 0.0259556C130.764 -0.0713536 140.374 -0.140861 147.092 4.66899C145.924 7.18513 144.867 9.68736 144.561 12.6622C142.405 17.4165 133.824 12.8569 129.178 12.8847C111.904 11.1053 93.9492 15.8039 79.3179 23.4497C66.6615 25.7851 55.4515 40.8819 45.8271 44.7187C41.6269 39.8949 33.6715 37.7402 42.5448 31.8043C64.5474 11.0914 92.308 -0.14086 122.057 0.0259556Z" fill="#E3276A"/>
<path d="M0 125.833C1.80805 99.8513 7.05135 75.6213 23.0596 55.4644C25.8968 53.4487 29.0818 47.1931 32.0442 47.6796C33.7967 50.7101 40.4725 53.268 38.136 57.1047C30.2779 65.1119 26.467 76.2051 20.876 85.1298C13.31 105.982 10.9595 131.379 17.6632 153.052C-0.111332 168.871 2.97626 137.635 0.0138368 125.833H0Z" fill="#E3276A"/>
</svg>
