<svg width="260" height="131" viewBox="0 0 260 131" fill="none" xmlns="http://www.w3.org/2000/svg">
<path d="M0.0139005 96.0756C0.0139005 95.8115 0.0139005 95.5612 0.0139005 95.2971C0.125165 95.0747 0.264246 94.8523 0.361603 94.616C2.2531 89.9312 4.01943 85.1909 6.05001 80.5617C7.48254 77.3088 7.87199 73.4443 11.1543 71.1783C11.196 71.1505 11.1821 71.0393 11.1543 71.1088C10.2086 69.7604 8.78991 69.6492 7.44082 69.399C6.66197 69.2461 6.38381 68.8707 6.42554 68.0645C6.49508 66.3824 6.55071 64.6864 6.45336 63.0044C6.38382 61.8367 6.8706 61.1138 7.77462 60.5438C8.21968 60.2658 8.69257 60.0434 9.10981 59.7515C9.87475 59.2093 10.5562 58.6533 10.7649 57.5829C11.043 56.0815 12.1001 55.1362 13.477 54.4968C15.7857 53.4264 18.3309 53.7461 20.7231 53.204C22.239 52.8564 23.908 53.1344 25.5075 53.2318C26.4949 53.3013 27.232 52.9954 27.9553 52.3699C31.8913 48.9502 36.2167 46.1004 40.7785 43.5703C41.1541 43.3618 41.5157 43.1672 41.7382 42.7502C42.4336 41.4573 43.1429 40.1645 43.8801 38.8995C44.2695 38.2461 44.1026 37.9959 43.3933 37.8847C40.7925 37.4816 38.1916 37.0089 35.5908 36.6058C33.9219 36.3417 33.5881 35.869 33.908 34.187C34.0749 33.3112 34.6868 32.8524 35.3683 32.4771C36.0915 32.074 36.3419 31.6708 35.8829 30.8507C35.4239 30.0305 35.104 29.113 34.812 28.2094C34.2696 26.5273 33.5463 24.8592 33.9775 23.0381C34.2696 21.7592 34.353 20.4664 34.4782 19.1875C34.6868 16.9215 35.9246 15.2256 38.136 15.031C42.3084 14.6556 46.5087 14.2803 50.6116 15.7121C52.0024 16.1987 53.421 16.5462 54.9092 16.574C62.7951 16.6713 70.6671 16.8103 78.5529 16.8659C79.8047 16.8659 80.5418 17.3664 80.8339 18.5063C81.6962 21.7731 81.7379 25.0955 81.3485 28.4179C81.265 29.0991 81.0842 29.669 81.3207 30.4058C81.9743 32.4354 82.4333 32.6856 84.3248 31.5874C84.0327 31.3233 83.379 31.4901 83.4347 30.8785C83.4764 30.3502 83.9493 30.1278 84.297 30.0166C85.7573 29.53 87.2733 29.4744 88.7615 29.9193C89.1926 30.0444 89.749 30.4614 89.596 30.7811C88.8867 32.3798 90.2358 31.8932 90.8616 32.1018C91.265 32.2408 91.7517 32.2686 91.9325 32.7273C92.1551 33.2695 92.5862 33.2 93.0174 33.2C99.0813 33.1305 105.145 33.061 111.209 32.9776C111.515 32.9776 111.974 33.1583 112.085 32.6856C112.252 32.0045 112.878 31.9628 113.365 31.7125C114.033 31.3789 114.811 31.2816 115.507 30.6143C114.311 30.6143 113.295 30.6143 112.28 30.6143C107.843 30.5726 103.713 29.5995 100.764 25.9852C98.7058 23.4691 95.7712 22.5377 93.0174 21.2865C92.1273 20.8834 91.4736 20.522 91.112 19.5767C90.2775 17.4081 88.9423 15.726 86.7031 14.7807C85.4375 14.2525 84.2831 13.4462 83.1148 12.7094C82.3081 12.209 81.4736 11.7224 80.7921 11.0691C79.2762 9.59555 79.7769 7.83008 81.7796 7.27403C84.3665 6.55116 86.6336 7.51035 88.8588 8.63636C89.3595 8.88658 89.7907 9.1368 90.4305 9.01169C92.7531 8.56685 95.0758 8.81707 97.0785 10.0682C99.9297 11.8476 103.059 12.6677 106.272 13.4601C113.657 15.2673 121.112 16.3794 128.747 16.1709C130.347 16.1292 131.946 16.2682 133.546 16.4072C134.77 16.5045 135.993 16.7964 136.703 17.9363C137.718 19.5628 138.26 21.3144 137.857 23.2466C137.454 25.1928 137.231 27.1668 137.217 29.1686C137.203 31.1982 135.785 32.2964 133.768 31.8932C132.961 31.7403 132.155 31.5596 131.348 31.4762C130.861 31.4206 130.166 31.2955 130.041 31.9489C129.929 32.491 130.444 33.061 130.889 33.1027C132.516 33.2556 133.128 34.5623 133.991 35.591C134.936 36.717 135.743 36.6614 136.605 35.4798C137.009 34.9237 137.189 34.187 138.177 33.6865C137.621 35.2018 137.064 36.3834 135.896 37.0228C134.616 37.7179 134.005 36.3556 132.989 35.591C133.17 36.0497 133.254 36.2444 133.323 36.439C134.491 39.3861 134.491 39.5529 131.793 41.2071C127.913 43.5982 124.227 46.2533 120.861 49.3116C118.567 51.4107 116.508 53.7183 114.825 56.4291C116.16 56.2344 116.494 56.6376 116.286 58.1667C116.244 58.5004 116.286 58.9174 115.938 59.0981C115.549 59.2927 115.298 58.9174 115.076 58.695C114.561 58.1806 114.005 57.9304 113.601 58.695C113.059 59.7237 112.628 60.8219 112.503 62.0035C112.461 62.4066 112.489 62.5734 113.045 62.5317C113.893 62.4622 114.742 62.6707 115.576 62.2815C115.994 62.0869 116.425 62.2676 116.772 62.5734C116.925 62.7124 116.87 62.8654 116.758 63.0183C116.453 63.4909 113.949 64.4918 113.337 64.3806C112.169 64.1443 111.71 64.464 111.71 65.6595C111.696 73.8613 116.007 82.2577 125.84 84.7182C126.174 84.8016 126.675 85.0101 126.828 84.8711C128.01 83.7312 129.318 84.3846 130.611 84.468C135.02 84.7738 139.429 85.0519 143.838 85.1909C149.804 85.3855 155.785 85.4411 161.765 85.5662C162.766 85.5801 163.949 85.5384 164.561 86.3447C165.381 87.4429 166.299 87.2205 167.301 87.0536C168.983 86.7617 170.541 86.1501 171.932 85.1353C172.182 84.9545 172.586 84.8433 172.502 84.3568C171.974 84.2039 171.417 84.0788 170.903 83.8702C167.801 82.6191 165.84 80.4783 165.632 77.0169C165.395 72.9855 165.729 68.968 166.216 64.9784C167.148 57.416 169.039 50.0484 170.903 42.6668C171.751 39.2748 172.488 35.8273 174.227 32.7412C176.688 28.3623 181.362 27.0417 185.784 29.4466C186.438 29.7942 187.036 30.2251 187.871 30.7394C186.716 28.1816 185.645 25.874 184.63 23.5525C183.406 20.7444 181.932 17.978 181.932 14.8224C181.932 12.5704 181.57 10.4574 180.541 8.45564C180.166 7.73277 180.013 6.64847 179.442 6.34264C178.928 6.06462 178.191 7.02381 177.523 7.38524C176.438 7.983 175.312 8.19152 174.213 7.48255C173.198 6.81529 172.683 5.82829 172.822 4.60498C172.933 3.59018 173.559 2.86732 174.338 2.28346C174.825 1.92203 175.02 1.6023 174.408 1.22696C174.018 0.990638 173.559 0.740415 173.754 0.253869C173.921 -0.16317 174.449 0.0592505 174.811 0.0592505C183.643 0.0592505 192.474 0.0592505 201.306 0.0592505C201.612 0.0592505 201.987 -0.0936638 202.293 0.295573C201.64 1.99153 200.444 3.03413 198.663 3.45117C197.314 3.7709 196.007 3.61799 194.699 3.21485C193.448 2.82561 192.224 2.83951 191.111 3.65969C190.764 3.90991 190.318 4.18794 190.722 4.70229C191.862 6.12022 192.321 7.95519 193.476 9.34532C194.296 10.3462 195.214 11.2776 196.062 12.2507C196.285 12.5009 196.605 12.8485 196.382 13.1543C196.132 13.5157 195.757 13.2099 195.451 13.0709C194.936 12.8346 194.435 12.5704 193.629 12.1812C195.882 17.0606 197.968 21.6202 200.11 26.152C202.738 31.6986 205.214 37.3148 208.19 42.6946C208.83 43.8484 209.595 45.0856 210.875 45.3775C211.973 45.6277 212.933 46.0587 213.934 46.4896C216.229 47.4905 218.246 51.4107 217.884 53.9129C217.731 55.0111 216.493 56.3735 218.232 57.3326C218.26 57.3326 218.274 57.416 218.26 57.4578C218.009 58.2779 218.538 58.0138 218.913 57.9304C219.957 57.6941 221 57.3883 222.057 57.2214C226.271 56.5403 230.499 56.3596 234.727 56.999C237.717 57.4578 240.666 58.1528 243.42 59.4873C244.282 59.9044 245.325 60.3075 245.464 61.3084C245.603 62.3093 246.229 62.6568 246.897 63.1017C252.209 66.7021 256.674 71.0949 259.483 76.9613C260.276 78.6016 259.65 80.3949 258.037 81.2429C257.3 81.6182 256.493 81.785 255.673 81.9241C252.321 82.5079 248.941 82.4245 245.575 82.3689C245.269 82.3689 244.908 82.1604 244.602 82.5635C246.006 83.9258 247.105 85.5245 248.176 87.1371C252.223 93.2258 253.712 99.968 252.488 107.072C250.554 118.345 243.809 125.713 233.016 129.439C231.973 129.8 230.944 129.967 229.845 129.953C226.549 129.925 223.267 129.87 219.971 129.967C217.648 130.036 215.52 129.467 213.448 128.535C211.473 127.645 209.553 126.645 207.731 125.491C203.336 122.71 200.11 118.86 197.815 114.245C195.896 110.394 195.27 106.196 194.964 101.942C194.908 101.219 194.727 100.997 193.99 100.983C191.946 100.941 189.929 100.663 188.121 99.6204C187.565 99.3007 187.37 99.6482 187.078 99.9819C185.451 101.845 183.656 103.541 181.946 105.306C177.718 109.657 172.474 111.395 166.563 111.298C156.605 111.131 146.647 110.853 136.703 110.575C135.59 110.547 135.674 110.922 136.021 111.673C136.564 112.799 137.078 113.953 137.593 115.093C137.996 115.968 138.191 116.872 137.454 117.637C136.564 118.568 135.395 118.484 134.297 118.193C133.337 117.942 133.087 117.15 132.989 116.191C132.822 114.481 132.92 112.743 132.266 111.075C131.835 109.963 130.973 110.297 130.319 110.394C129.568 110.519 130.096 111.145 130.194 111.534C130.694 113.591 131.195 115.649 131.765 117.678C132.808 121.362 133.337 125.185 134.909 128.716C135.27 129.536 135.284 130.092 134.06 129.981C132.948 129.87 131.807 129.981 130.68 129.953C130.375 129.953 129.902 130.148 129.804 129.661C129.721 129.244 129.971 128.799 130.388 128.771C131.487 128.688 131.181 128.104 131 127.437C129.568 122.057 128.149 116.663 126.758 111.27C126.55 110.477 126.258 110.185 125.395 110.158C117.482 109.949 109.554 109.685 101.64 109.407C100.375 109.365 99.1647 109.518 97.9408 109.893C94.8115 110.88 91.5987 111.562 88.3721 112.201C86.2441 112.618 84.1579 111.923 81.9882 112.479C79.7212 113.049 78.1218 114.147 76.884 116.038C73.7407 120.848 69.8604 124.865 64.7144 127.645C58.567 130.954 51.905 130.467 45.5212 129.689C36.2723 128.563 29.8885 122.724 25.5909 114.676C23.6159 110.978 23.157 106.863 23.1848 102.707C23.1848 101.97 23.1013 101.553 22.2669 101.567C21.8774 101.567 21.5019 101.455 21.1125 101.4C17.9832 100.955 14.7982 100.552 11.9888 99.0505C10.1529 98.0635 8.33094 97.2572 6.27255 96.8958C4.77047 96.6316 3.6022 95.881 3.82473 93.8236C2.89288 94.7411 2.18356 95.4778 1.44643 96.1868C0.987466 96.6177 0.486784 96.7846 0 96.1868L0.0139005 96.0756Z" fill="#E3276A"/>
</svg>
